<?xml version="1.0" encoding="UTF-8"?>
<svg width="23px" height="23px" viewBox="0 0 23 23" version="1.1" xmlns="http://www.w3.org/2000/svg" xmlns:xlink="http://www.w3.org/1999/xlink">
    <!-- Generator: Sketch 59.1 (86144) - https://sketch.com -->
    <title>2d</title>
    <desc>Created with Sketch.</desc>
    <g id="2d" stroke="none" stroke-width="1" fill="none" fill-rule="evenodd">
        <path d="M22.7181716,15.0097301 C22.526426,15.1942383 22.2865876,15.290567 22.0388206,15.290567 C21.7909493,15.290567 21.5431823,15.1942383 21.3594696,15.0097301 L19.2891809,12.9319757 L19.2891809,15.4269108 C19.2891809,19.5985091 15.8841845,22.9919552 11.7037557,22.9919552 C11.1761946,22.9919552 10.744715,22.5586848 10.744715,22.0292947 C10.744715,21.4998001 11.1761946,21.0666343 11.7037557,21.0666343 C14.8290623,21.0666343 17.3707864,18.5395199 17.3707864,15.4269108 L17.3707864,12.9399161 L15.300602,15.0177749 C14.9250394,15.3948361 14.317567,15.3948361 13.9417957,15.0177749 C13.5661288,14.6407137 13.5661288,14.03098 13.9417957,13.6539188 L17.6505805,9.93157598 C18.0262474,9.55451481 18.6338242,9.55451481 19.0093868,9.93157598 L22.7181716,13.6539188 C23.0939428,14.03098 23.0939428,14.6407137 22.7181716,15.0097301 M8.874309,22.0372351 C8.874309,22.5689237 8.44491579,23 7.91516391,23 C7.3853077,23 6.95591449,22.5689237 6.95591449,22.0372351 C6.95591449,21.5056509 7.3853077,21.0745746 7.91516391,21.0745746 C8.44491579,21.0745746 8.874309,21.5056509 8.874309,22.0372351 M5.07757998,22.0372351 C5.07757998,22.5667297 4.64599598,23 4.11833056,23 C3.58284092,23 3.15928979,22.5667297 3.15928979,22.0372351 C3.15928979,21.5077405 3.59076946,21.0745746 4.11833056,21.0745746 C4.64599598,21.0745746 5.07757998,21.5077405 5.07757998,22.0372351 M6.99587017,16.5660347 C6.80402029,16.7505428 6.56418185,16.8467671 6.31641487,16.8467671 C6.0686479,16.8467671 5.82088092,16.7505428 5.63716822,16.5660347 L3.63875801,14.5604746 L1.64055645,16.5660347 C1.44870657,16.7505428 1.20886813,16.8467671 0.961101151,16.8467671 C0.713334172,16.8467671 0.465567194,16.7505428 0.281750176,16.5660347 C-0.0939167253,16.1889735 -0.0939167253,15.5793442 0.281750176,15.2022831 L2.28005606,13.1966185 L0.281750176,11.1910585 C-0.0939167253,10.8141018 -0.0939167253,10.2043681 0.281750176,9.82730692 C0.657417077,9.45024575 1.26478523,9.45024575 1.64055645,9.82730692 L3.63875801,11.832867 L5.63716822,9.82730692 C6.0127308,9.45024575 6.62020327,9.45024575 6.99587017,9.82730692 C7.3716414,10.2043681 7.3716414,10.8141018 6.99587017,11.1910585 L4.99766861,13.1966185 L6.99587017,15.2022831 C7.3716414,15.5793442 7.3716414,16.1889735 6.99587017,16.5660347 M18.3380687,1.93336574 C19.3211037,1.93336574 20.128459,2.74359277 20.128459,3.7463728 C20.128459,4.74915282 19.3291366,5.55937985 18.3380687,5.55937985 C17.3468964,5.55937985 16.5476784,4.74110801 16.5476784,3.73832799 C16.5476784,2.73565244 17.3468964,1.93336574 18.3380687,1.93336574 M18.3380687,7.47676045 C20.3842588,7.47676045 22.0467491,5.80009721 22.0467491,3.73832799 C22.0467491,1.67666324 20.3842588,0 18.3380687,0 C16.2917742,0 14.6292839,1.68460357 14.6292839,3.73832799 C14.6292839,5.7920524 16.2917742,7.47676045 18.3380687,7.47676045" id="Fill-1" fill="#FFFFFF"></path>
    </g>
</svg>