<?xml version="1.0" encoding="UTF-8"?>
<svg width="27px" height="31px" viewBox="0 0 27 31" version="1.1" xmlns="http://www.w3.org/2000/svg" xmlns:xlink="http://www.w3.org/1999/xlink">
    <!-- Generator: Sketch 59.1 (86144) - https://sketch.com -->
    <title>3d</title>
    <desc>Created with Sketch.</desc>
    <g id="3d" stroke="none" stroke-width="1" fill="none" fill-rule="evenodd">
        <path d="M25.1679827,22.2476259 L14.4160079,28.4656488 L14.4160079,16.0257524 L25.1679827,9.80810527 L25.1679827,22.2476259 Z M13.5000465,14.4366615 L2.75163469,8.22061089 L13.5000465,2.00474816 L24.2483646,8.22061089 L13.5000465,14.4366615 Z M12.5839914,28.4656488 L1.83201656,22.2476259 L1.83201656,9.80810527 L12.5839914,16.0257524 L12.5839914,28.4656488 Z M26.6311394,7.47959861 L13.8687189,0.0989659941 C13.6405958,-0.0329886647 13.3594972,-0.0329886647 13.1312804,0.0989659941 L0.368766116,7.47959861 C0.140643065,7.61155327 0,7.85545807 0,8.11936739 L0,22.8806326 C0,23.1445419 0.140643065,23.3883528 0.368766116,23.5204014 L13.1312804,30.901034 C13.3594972,31.0329887 13.6405958,31.0329887 13.8687189,30.901034 L26.6311394,23.5204014 C26.8593562,23.3883528 27,23.1445419 27,22.8806326 L27,8.11936739 C27,7.85545807 26.8593562,7.61155327 26.6311394,7.47959861 L26.6311394,7.47959861 Z" id="Fill-1" fill="#81857C"></path>
    </g>
</svg>