<?xml version="1.0" encoding="UTF-8"?>
<svg width="40px" height="40px" viewBox="0 0 40 40" version="1.1" xmlns="http://www.w3.org/2000/svg" xmlns:xlink="http://www.w3.org/1999/xlink">
    <!-- Generator: Sketch 59.1 (86144) - https://sketch.com -->
    <title>avatar</title>
    <desc>Created with Sketch.</desc>
    <defs>
        <circle id="path-1" cx="20" cy="20" r="20"></circle>
        <filter x="-75.0%" y="-75.0%" width="250.0%" height="250.0%" filterUnits="objectBoundingBox" id="filter-2">
            <feOffset dx="0" dy="0" in="SourceAlpha" result="shadowOffsetOuter1"></feOffset>
            <feGaussianBlur stdDeviation="10" in="shadowOffsetOuter1" result="shadowBlurOuter1"></feGaussianBlur>
            <feColorMatrix values="0 0 0 0 0   0 0 0 0 0   0 0 0 0 0  0 0 0 0.143465909 0" type="matrix" in="shadowBlurOuter1"></feColorMatrix>
        </filter>
    </defs>
    <g id="avatar" stroke="none" stroke-width="1" fill="none" fill-rule="evenodd">
        <g id="Oval">
            <use fill="black" fill-opacity="1" filter="url(#filter-2)" xlink:href="#path-1"></use>
            <use fill="#9D9563" fill-rule="evenodd" xlink:href="#path-1"></use>
        </g>
        <path d="M30.7531666,29.3112446 C30.7020412,29.4404639 30.6049031,29.5498033 30.4873148,29.6243529 C30.3339388,29.7187824 26.6580269,32 20.5076486,32 C14.3572703,32 10.6813585,29.7237523 10.5279824,29.6243529 C10.4052816,29.5498033 10.313256,29.4404639 10.2621307,29.3112446 C9.99116639,28.6452682 9.99627892,27.3182357 10.0013915,27.0598468 L10.0013915,27.0448871 C10.006504,27.0051771 10.006504,26.9654173 10.006504,26.9206378 C10.0371792,25.9416028 10.1036421,23.6404556 12.3224818,22.8999793 C12.3378195,22.8949596 12.3531571,22.8900393 12.3736072,22.8850694 C14.689585,22.3135225 16.5965602,21.0213295 16.6170103,21.0063698 C16.9288749,20.7927107 17.3583277,20.8672603 17.5781667,21.1704287 C17.7980057,21.473597 17.7213177,21.8910748 17.4094531,22.1047836 C17.32254,22.1594533 15.2877515,23.5410561 12.7417096,24.1772624 C11.5504892,24.5897701 11.4175633,25.8272437 11.3817756,26.9604473 C11.3817756,27.0051771 11.3766631,27.0448871 11.3766631,27.0846966 C11.366438,27.5319942 11.4022257,28.2228205 11.4840263,28.6204183 C12.3173693,29.0776558 15.5842785,30.6630772 20.5025361,30.6630772 C25.4412438,30.6630772 28.6877029,29.0825761 29.5159334,28.6253883 C29.5977339,28.2277904 29.6284091,27.5369642 29.6232966,27.0896666 C29.618184,27.0499068 29.618184,27.010147 29.618184,26.9654173 C29.5823963,25.8322634 29.4494704,24.5947401 28.25825,24.1822323 C25.7122081,23.5460758 23.6774197,22.1693932 23.5905066,22.1097536 C23.278642,21.8960447 23.201954,21.4785173 23.421793,21.1753986 C23.6416319,20.8722303 24.0710848,20.7976807 24.3829493,21.0113895 C24.4033995,21.0262994 26.3205997,22.3184924 28.6263525,22.8900393 C28.6416901,22.8949596 28.6621402,22.8999793 28.6774778,22.9049493 C30.8963175,23.6404556 30.9627805,25.9416028 30.9934557,26.9256575 C30.9934557,26.9703375 30.9985682,27.010147 30.9985682,27.0499068 L30.9985682,27.0648167 C31.0036807,27.3232553 31.0087933,28.6502381 30.7531666,29.3112446 M16.5709975,13.3327811 C16.5709975,13.3178712 16.5761101,13.3029613 16.5761101,13.2930213 C16.7448237,9.72955063 19.3471034,9.3468627 20.4616358,9.3468627 L20.482086,9.3468627 L20.5229862,9.3468627 C21.9033704,9.37668254 24.2500234,9.92337958 24.408512,13.2930213 C24.408512,13.3079312 24.408512,13.3228412 24.4136245,13.3327811 C24.4187371,13.3675709 24.7766144,16.7471526 23.1508287,18.526403 C22.5066494,19.2321392 21.6477437,19.5800373 20.5178737,19.5899772 L20.492311,19.5899772 L20.4667484,19.5899772 C19.3419909,19.5800373 18.4779727,19.2321392 17.8389059,18.526403 C16.2182327,16.7570926 16.565885,13.362601 16.5709975,13.3327811 M20.4105105,20.9318203 L20.492311,20.9318203 L20.5229862,20.9318203 L20.5741116,20.9318203 C22.072084,20.9069704 23.2837545,20.3951129 24.178448,19.4160282 C26.1467735,17.2590598 25.8195714,13.5613999 25.7837836,13.2085318 C25.6559703,10.5595361 24.3676117,9.292193 23.3042047,8.7007662 C22.5117619,8.2584386 21.5863933,8.01987989 20.5536614,8 L20.5178737,8 L20.4974236,8 L20.4667484,8 C19.8992571,8 18.7847247,8.08945952 17.7162051,8.68088631 C16.642573,9.27231311 15.3337643,10.5396562 15.205951,13.2085318 C15.1701632,13.5613999 14.8429611,17.2590598 16.8112866,19.4160282 C17.7008675,20.3951129 18.9125381,20.9069704 20.4105105,20.9318203" id="Fill-1" fill="#FFFFFF"></path>
    </g>
</svg>